<?xml version="1.0" standalone="no"?>
<!DOCTYPE svg PUBLIC "-//W3C//DTD SVG 20010904//EN"
 "http://www.w3.org/TR/2001/REC-SVG-20010904/DTD/svg10.dtd">
<svg version="1.0" xmlns="http://www.w3.org/2000/svg"
 width="600.000000pt" height="173.000000pt" viewBox="0 0 600.000000 173.000000"
 preserveAspectRatio="xMidYMid meet">
<g transform="translate(0.000000,173.000000) scale(0.100000,-0.100000)"
fill="#000000" stroke="none">
<path d="M1482 1722 c-52 -2 -63 -6 -58 -18 3 -9 6 -18 6 -20 0 -7 119 -4 123
4 3 4 2 14 -2 22 -5 12 -20 14 -69 12z"/>
<path d="M1680 1709 c0 -22 4 -24 65 -27 60 -3 65 -2 65 17 0 17 -6 21 -34 21
-18 0 -48 3 -65 6 -28 6 -31 4 -31 -17z"/>
<path d="M1938 1687 c-4 -22 0 -25 55 -35 66 -12 77 -10 77 17 0 15 -11 20
-50 25 -28 4 -56 9 -64 12 -8 3 -15 -4 -18 -19z"/>
<path d="M1218 1687 c-41 -9 -48 -14 -48 -35 0 -20 4 -23 23 -18 12 3 41 9 65
12 36 6 42 10 42 30 0 27 -6 27 -82 11z"/>
<path d="M2187 1629 c-4 -13 -5 -23 -4 -24 1 0 30 -10 65 -21 34 -12 62 -18
62 -13 0 4 3 14 6 22 4 11 -9 20 -48 32 -29 10 -58 20 -64 22 -6 2 -14 -6 -17
-18z"/>
<path d="M980 1615 c-57 -24 -65 -32 -52 -53 7 -10 22 -7 69 10 55 21 60 25
52 46 -5 12 -10 22 -11 21 -2 0 -28 -11 -58 -24z"/>
<path d="M2429 1538 c-13 -24 -17 -19 50 -53 52 -26 55 -26 68 -9 7 9 12 18
10 19 -1 1 -28 16 -60 33 -56 30 -57 30 -68 10z"/>
<path d="M750 1510 c-25 -16 -51 -29 -57 -29 -10 -1 -10 -7 -2 -25 l11 -24 59
31 c32 18 59 35 59 38 0 3 -6 12 -12 21 -12 14 -18 13 -58 -12z"/>
<path d="M2653 1412 c-9 -16 -4 -24 39 -56 40 -29 53 -34 64 -25 8 6 14 14 14
18 0 6 -95 81 -102 81 -2 0 -8 -8 -15 -18z"/>
<path d="M521 1366 c-43 -32 -46 -39 -32 -64 6 -11 32 4 110 64 5 4 -20 34
-28 34 -3 0 -26 -15 -50 -34z"/>
<path d="M5185 1372 c-1 -2 -1 -12 2 -23 5 -16 14 -19 69 -19 56 0 64 2 64 19
0 17 -9 20 -66 23 -36 1 -67 2 -69 0z"/>
<path d="M4963 1353 c-27 -4 -33 -9 -33 -29 0 -23 3 -25 28 -20 15 3 44 8 65
12 27 5 37 11 37 25 0 20 -17 22 -97 12z"/>
<path d="M5447 1354 c-4 -4 -7 -16 -7 -26 0 -14 8 -18 33 -18 17 0 47 -4 65
-9 17 -5 32 -6 32 -1 0 5 3 15 6 23 4 11 -3 17 -23 21 -73 14 -99 17 -106 10z"/>
<path d="M3330 1325 c0 -24 2 -25 65 -25 63 0 65 1 65 25 0 24 -2 25 -65 25
-63 0 -65 -1 -65 -25z"/>
<path d="M3133 1328 c-58 -9 -63 -12 -63 -35 0 -18 4 -23 18 -19 9 3 38 8 65
12 41 5 47 9 47 30 0 13 -1 23 -2 23 -2 -1 -31 -6 -65 -11z"/>
<path d="M3586 1333 c-3 -4 -6 -14 -6 -23 0 -23 118 -39 131 -18 14 22 10 27
-28 33 -21 3 -50 8 -64 10 -15 2 -29 1 -33 -2z"/>
<path d="M4733 1298 c-52 -16 -60 -21 -56 -38 6 -24 3 -24 75 -4 56 16 66 26
50 50 -5 7 -26 5 -69 -8z"/>
<path d="M5696 1284 c-8 -21 -12 -17 55 -47 l57 -25 9 22 c9 19 5 23 -45 44
-66 26 -68 27 -76 6z"/>
<path d="M2905 1285 c-5 -2 -29 -9 -52 -15 -34 -8 -40 -14 -36 -30 3 -11 11
-20 18 -20 11 0 34 -25 82 -89 2 -3 11 3 20 12 16 15 15 19 -15 56 l-31 39 30
6 c22 4 30 11 27 23 -3 17 -23 25 -43 18z"/>
<path d="M3838 1272 c-4 -16 6 -22 58 -39 35 -11 64 -16 64 -12 0 4 3 14 6 23
4 11 -7 19 -47 30 -67 20 -76 20 -81 -2z"/>
<path d="M320 1195 c-39 -39 -42 -47 -30 -60 13 -12 21 -8 63 31 38 37 46 49
36 60 -17 20 -20 19 -69 -31z"/>
<path d="M4489 1214 c-46 -21 -56 -29 -52 -45 7 -24 6 -24 73 3 30 12 56 23
57 23 5 2 -10 45 -16 44 -3 0 -31 -12 -62 -25z"/>
<path d="M2628 1197 c-57 -22 -65 -30 -50 -54 6 -10 21 -7 63 10 55 22 59 26
59 52 0 19 -2 18 -72 -8z"/>
<path d="M4080 1190 c-6 -12 -10 -23 -8 -24 2 -1 28 -16 59 -33 53 -30 56 -30
67 -12 10 16 6 22 -36 45 -26 15 -52 31 -59 36 -8 6 -15 2 -23 -12z"/>
<path d="M5931 1178 c-7 -11 -11 -21 -9 -22 54 -35 54 -35 66 -16 10 16 7 22
-16 39 -28 20 -28 20 -41 -1z"/>
<path d="M4258 1107 c-61 -31 -63 -33 -48 -57 8 -13 17 -10 65 15 30 17 55 35
55 40 -1 29 -18 29 -72 2z"/>
<path d="M2398 1088 c-61 -33 -63 -35 -49 -57 8 -13 18 -10 63 14 29 15 54 29
56 30 1 1 -1 11 -5 23 -8 20 -9 20 -65 -10z"/>
<path d="M147 1007 c-33 -46 -36 -53 -22 -67 17 -16 18 -15 75 61 18 25 19 27
2 42 -16 14 -20 11 -55 -36z"/>
<path d="M4293 1041 c-10 -16 -5 -24 33 -62 39 -38 46 -41 59 -29 13 13 10 21
-26 63 -22 26 -44 47 -47 47 -4 0 -12 -8 -19 -19z"/>
<path d="M2991 1031 c-11 -7 -11 -13 0 -32 7 -13 17 -40 23 -60 10 -32 14 -35
33 -28 l22 8 -21 61 c-22 60 -31 68 -57 51z"/>
<path d="M4028 977 c-49 -33 -56 -45 -37 -64 8 -8 25 -2 65 25 44 30 51 38 43
54 -13 23 -15 23 -71 -15z"/>
<path d="M2170 944 c-25 -20 -43 -39 -42 -42 18 -34 19 -34 68 3 27 20 51 39
53 41 5 5 -19 34 -28 33 -3 0 -26 -16 -51 -35z"/>
<path d="M17 820 c-15 -25 -15 -29 -1 -41 14 -11 19 -9 35 11 23 31 23 33 1
47 -16 9 -21 7 -35 -17z"/>
<path d="M3830 805 c-37 -38 -41 -46 -30 -60 16 -20 18 -19 63 31 24 27 35 47
31 58 -9 23 -15 21 -64 -29z"/>
<path d="M4452 842 c-16 -11 31 -122 52 -122 26 0 27 18 2 74 -25 57 -31 62
-54 48z"/>
<path d="M1973 771 c-33 -36 -40 -50 -31 -59 19 -19 30 -13 72 34 32 36 36 46
26 59 -17 21 -19 19 -67 -34z"/>
<path d="M3035 781 c-3 -2 -5 -19 -5 -37 0 -18 -4 -44 -9 -57 -8 -21 -6 -26
12 -31 27 -7 28 -5 38 46 13 70 11 84 -11 84 -12 0 -23 -2 -25 -5z"/>
<path d="M3085 640 c-3 -6 1 -7 9 -4 18 7 21 14 7 14 -6 0 -13 -4 -16 -10z"/>
<path d="M3695 579 c-16 -52 -17 -62 -4 -70 8 -5 17 -9 20 -9 5 0 50 123 46
126 -1 1 -11 4 -23 8 -18 6 -23 -1 -39 -55z"/>
<path d="M1841 548 c-13 -46 -16 -65 -7 -70 24 -16 33 -6 50 54 14 49 15 63 4
69 -23 15 -27 10 -47 -53z"/>
<path d="M2990 606 c0 -2 8 -10 18 -17 15 -13 16 -12 3 4 -13 16 -21 21 -21
13z"/>
<path d="M4515 535 c0 -61 1 -65 23 -65 21 0 22 4 22 65 0 61 -1 65 -22 65
-22 0 -23 -4 -23 -65z"/>
<path d="M2960 541 c0 -4 -15 -28 -34 -53 -32 -41 -33 -45 -16 -56 19 -12 35
1 78 64 20 29 20 30 1 42 -22 14 -29 15 -29 3z"/>
<path d="M3676 318 c17 -72 17 -72 41 -64 19 6 19 9 5 66 -13 51 -18 60 -37
60 l-23 0 14 -62z"/>
<path d="M2753 321 c-47 -35 -51 -40 -39 -57 13 -17 16 -17 55 10 58 41 68 54
50 71 -12 11 -22 8 -66 -24z"/>
<path d="M1830 334 c0 -26 42 -114 54 -114 28 0 34 21 15 58 -10 20 -20 45
-23 55 -7 21 -46 23 -46 1z"/>
<path d="M4475 323 c-3 -15 -15 -39 -25 -53 -15 -20 -16 -30 -8 -38 21 -21 34
-13 62 45 21 44 25 58 14 64 -23 15 -36 10 -43 -18z"/>
<path d="M2610 276 c0 -2 8 -10 18 -17 15 -13 16 -12 3 4 -13 16 -21 21 -21
13z"/>
<path d="M2538 191 c-48 -22 -56 -29 -51 -46 3 -11 7 -21 8 -23 2 -2 31 11 65
28 55 28 60 33 49 48 -8 9 -13 17 -14 18 0 1 -26 -11 -57 -25z"/>
<path d="M1990 139 c-10 -17 -6 -22 32 -38 62 -27 88 -34 88 -22 0 5 3 16 6
25 4 11 0 16 -12 16 -11 0 -38 9 -61 20 -42 19 -43 19 -53 -1z"/>
<path d="M3782 148 c-19 -19 -16 -24 39 -64 49 -35 52 -37 65 -19 12 16 9 21
-25 46 -22 15 -42 32 -46 38 -8 14 -18 14 -33 -1z"/>
<path d="M4339 134 c-7 -8 -30 -24 -51 -35 -33 -17 -37 -22 -28 -39 6 -11 13
-20 16 -20 14 0 104 66 104 76 0 6 -6 17 -14 23 -10 9 -16 7 -27 -5z"/>
<path d="M2325 115 c-5 -2 -27 -6 -47 -10 -30 -5 -38 -10 -38 -27 0 -19 4 -20
58 -13 68 8 72 10 72 36 0 18 -18 23 -45 14z"/>
<path d="M4010 29 c0 -13 8 -19 23 -20 29 -2 29 -2 51 7 12 4 17 4 13 -2 -3
-6 5 -10 19 -10 18 0 24 5 24 21 0 18 -7 20 -65 21 -57 2 -65 0 -65 -17z"/>
</g>
</svg>
