<?xml version="1.0" standalone="no"?>
<!DOCTYPE svg PUBLIC "-//W3C//DTD SVG 20010904//EN"
 "http://www.w3.org/TR/2001/REC-SVG-20010904/DTD/svg10.dtd">
<svg version="1.0" xmlns="http://www.w3.org/2000/svg"
 width="360.000000pt" height="360.000000pt" viewBox="0 0 360.000000 360.000000"
 preserveAspectRatio="xMidYMid meet">
<g transform="translate(0.000000,360.000000) scale(0.100000,-0.100000)"
fill="#000000" stroke="none">
<path d="M1538 2023 c-10 -2 -18 -11 -18 -19 0 -22 44 -14 48 9 4 17 1 18 -30
10z"/>
<path d="M1640 2015 c0 -9 9 -15 25 -15 16 0 25 6 25 15 0 9 -9 15 -25 15 -16
0 -25 -6 -25 -15z"/>
<path d="M1422 1987 c-22 -10 -25 -28 -6 -34 16 -5 44 21 36 33 -5 8 -14 8
-30 1z"/>
<path d="M1757 1987 c-7 -19 32 -42 46 -28 8 8 5 15 -9 26 -24 18 -31 18 -37
2z"/>
<path d="M1716 1933 c-6 -14 -5 -15 5 -6 7 7 10 15 7 18 -3 3 -9 -2 -12 -12z"/>
<path d="M1308 1929 c-9 -5 -15 -16 -12 -24 5 -11 11 -12 30 -3 14 6 23 16 21
22 -5 14 -20 17 -39 5z"/>
<path d="M360 1910 c-9 -6 -10 -10 -3 -10 6 0 15 5 18 10 8 12 4 12 -15 0z"/>
<path d="M1215 1910 c-4 -6 -11 -7 -17 -4 -7 4 -8 2 -4 -5 6 -9 11 -9 22 0 14
11 18 19 10 19 -3 0 -8 -5 -11 -10z"/>
<path d="M1855 1910 c-10 -17 22 -47 35 -34 7 7 4 16 -9 28 -14 12 -21 14 -26
6z"/>
<path d="M370 1865 c0 -9 9 -15 25 -15 16 0 25 6 25 15 0 9 -9 15 -25 15 -16
0 -25 -6 -25 -15z"/>
<path d="M1198 1867 c-10 -8 -13 -18 -9 -26 7 -10 12 -10 30 1 21 13 24 29 5
35 -5 1 -17 -3 -26 -10z"/>
<path d="M258 1863 c-19 -5 -24 -18 -10 -27 15 -9 52 6 52 20 0 14 -10 16 -42
7z"/>
<path d="M490 1849 c0 -14 7 -19 25 -19 15 0 25 6 25 14 0 7 -11 16 -25 18
-19 4 -25 1 -25 -13z"/>
<path d="M866 1828 c3 -5 10 -6 15 -3 13 9 11 12 -6 12 -8 0 -12 -4 -9 -9z"/>
<path d="M2876 1832 c-3 -4 4 -9 15 -9 23 -2 25 3 4 10 -8 4 -16 3 -19 -1z"/>
<path d="M3207 1823 c3 -7 6 -13 8 -13 2 0 5 6 8 13 3 8 -1 14 -8 14 -7 0 -11
-6 -8 -14z"/>
<path d="M3250 1825 c-14 -8 -20 -14 -14 -15 5 0 19 7 30 15 24 18 16 19 -16
0z"/>
<path d="M605 1820 c-8 -13 -6 -16 22 -24 18 -6 43 9 32 18 -13 12 -48 15 -54
6z"/>
<path d="M1093 1813 c-15 -5 -18 -33 -4 -33 21 0 41 13 41 26 0 14 -14 17 -37
7z"/>
<path d="M1926 1812 c-7 -12 22 -45 33 -37 8 4 8 12 1 26 -11 20 -25 25 -34
11z"/>
<path d="M1985 1811 c-3 -5 -2 -12 3 -15 5 -3 9 1 9 9 0 17 -3 19 -12 6z"/>
<path d="M2948 1813 c-28 -7 -22 -33 7 -31 17 2 25 8 25 20 0 18 -2 19 -32 11z"/>
<path d="M3050 1805 c0 -8 4 -15 9 -15 5 0 16 -3 25 -6 12 -4 16 0 16 15 0 16
-6 21 -25 21 -16 0 -25 -6 -25 -15z"/>
<path d="M576 1791 c-3 -5 2 -15 12 -22 15 -12 16 -12 5 2 -7 9 -10 19 -6 22
3 4 4 7 0 7 -3 0 -8 -4 -11 -9z"/>
<path d="M720 1776 c0 -18 47 -27 54 -10 6 17 -3 24 -31 24 -13 0 -23 -6 -23
-14z"/>
<path d="M2823 1783 c-15 -5 -18 -33 -4 -33 21 0 41 13 41 26 0 14 -14 17 -37
7z"/>
<path d="M3170 1775 c0 -8 4 -15 9 -15 5 0 16 -3 25 -6 10 -4 16 -1 16 9 0 14
-20 27 -41 27 -5 0 -9 -7 -9 -15z"/>
<path d="M978 1773 c-10 -2 -18 -11 -18 -20 0 -12 6 -14 27 -8 34 8 37 11 28
24 -6 11 -9 12 -37 4z"/>
<path d="M1235 1770 c3 -5 8 -10 11 -10 2 0 4 5 4 10 0 6 -5 10 -11 10 -5 0
-7 -4 -4 -10z"/>
<path d="M840 1756 c0 -7 11 -16 25 -18 19 -4 25 -1 25 13 0 14 -7 19 -25 19
-15 0 -25 -6 -25 -14z"/>
<path d="M3265 1761 c-3 -5 -2 -12 3 -15 5 -3 9 1 9 9 0 17 -3 19 -12 6z"/>
<path d="M3343 1745 c0 -8 4 -12 9 -9 5 3 6 10 3 15 -9 13 -12 11 -12 -6z"/>
<path d="M2708 1743 c-19 -5 -24 -18 -10 -27 14 -8 53 6 49 17 -4 13 -16 16
-39 10z"/>
<path d="M2005 1720 c-8 -13 13 -40 31 -40 18 0 18 18 0 36 -17 17 -23 17 -31
4z"/>
<path d="M3276 1721 c-3 -4 3 -16 13 -25 22 -20 40 -4 21 19 -14 17 -26 19
-34 6z"/>
<path d="M2791 1707 c-8 -10 -7 -14 2 -14 8 0 14 6 14 14 0 7 -1 13 -2 13 -2
0 -8 -6 -14 -13z"/>
<path d="M3210 1702 c9 -19 30 -23 30 -5 0 4 -3 3 -7 0 -3 -4 -12 1 -20 11
-13 15 -13 15 -3 -6z"/>
<path d="M2598 1703 c-10 -2 -18 -13 -18 -23 0 -16 4 -18 23 -11 12 5 23 16
25 25 4 16 1 17 -30 9z"/>
<path d="M890 1696 c0 -2 7 -7 16 -10 8 -3 12 -2 9 4 -6 10 -25 14 -25 6z"/>
<path d="M3128 1693 c7 -3 16 -2 19 1 4 3 -2 6 -13 5 -11 0 -14 -3 -6 -6z"/>
<path d="M2483 1662 c-24 -4 -27 -10 -15 -28 8 -13 52 0 52 15 0 14 -11 18
-37 13z"/>
<path d="M2105 1650 c-8 -13 -6 -16 22 -24 18 -6 43 9 32 18 -13 12 -48 15
-54 6z"/>
<path d="M2363 1632 c-16 -5 -20 -11 -14 -21 11 -17 51 -5 51 15 0 15 -3 16
-37 6z"/>
<path d="M3353 1633 c-9 -3 -9 -10 -1 -29 15 -31 42 -33 33 -1 -9 28 -17 36
-32 30z"/>
<path d="M2220 1615 c0 -10 10 -15 30 -15 20 0 30 5 30 15 0 10 -10 15 -30 15
-20 0 -30 -5 -30 -15z"/>
</g>
</svg>
