<?xml version="1.0" encoding="iso-8859-1"?>
<!-- Uploaded to: SVG Repo, www.svgrepo.com, Generator: SVG Repo Mixer Tools -->
<svg fill="#000000" height="800px" width="800px" version="1.1" id="Layer_1" xmlns="http://www.w3.org/2000/svg" xmlns:xlink="http://www.w3.org/1999/xlink" 
	 viewBox="0 0 500 500" xml:space="preserve">
<g>
	<g>
		<path d="M363.234,124.944H136.77c-19.432,0-35.24,15.812-35.24,35.24V445.22c0,19.428,15.812,35.236,35.24,35.236h226.468
			c19.428,0,35.232-15.808,35.232-35.236V160.184C398.47,140.752,382.662,124.944,363.234,124.944z M390.47,445.22
			c0,15.016-12.22,27.236-27.236,27.236H136.77c-15.02,0-27.24-12.22-27.24-27.236V160.184c0-15.02,12.22-27.24,27.24-27.24h226.464
			c15.02,0,27.236,12.22,27.236,27.24V445.22z"/>
	</g>
</g>
<g>
	<g>
		<path d="M173.698,472.432c-2.208,0-4,1.792-4,4c0,8.584-6.984,15.568-15.568,15.568s-15.568-6.984-15.568-15.568
			c0-2.208-1.792-4-4-4s-4,1.792-4,4c0,12.996,10.572,23.568,23.568,23.568c12.996,0,23.568-10.572,23.568-23.568
			C177.698,474.224,175.906,472.432,173.698,472.432z"/>
	</g>
</g>
<g>
	<g>
		<path d="M361.51,472.432c-2.208,0-4,1.792-4,4c0,8.584-6.98,15.568-15.564,15.568s-15.568-6.984-15.568-15.568
			c0-2.208-1.792-4-4-4s-4,1.792-4,4c0,12.996,10.572,23.568,23.568,23.568c12.992,0,23.564-10.572,23.564-23.568
			C365.51,474.224,363.718,472.432,361.51,472.432z"/>
	</g>
</g>
<g>
	<g>
		<path d="M283.018,0h-69.984c-6.064,0-9.98,4.628-9.98,11.788v117.16c0,2.208,1.792,4,4,4s4-1.792,4-4V11.788
			C211.054,8,212.442,8,213.034,8h69.984c0.608,0,2.032,0,2.032,3.788v117.156c0,2.208,1.792,4,4,4s4-1.788,4-3.996V11.788
			C293.05,4.628,289.11,0,283.018,0z"/>
	</g>
</g>
<g>
	<g>
		<path d="M273.426,15.616H222.67c-2.208,0-4,1.792-4,4v109.328c0,2.208,1.792,4,4,4h50.756c2.212,0,4-1.788,4-4V19.616
			C277.426,17.408,275.634,15.616,273.426,15.616z M269.426,124.944H226.67V23.616h42.756V124.944z"/>
	</g>
</g>
<g>
	<g>
		<path d="M377.782,129.012c-2.004-0.936-4.384-0.076-5.32,1.928l-28.228,60.32c-2.984,6.384-11.508,11.776-18.612,11.776H169.918
			c-7.104,0-15.624-5.392-18.612-11.776l-28.124-60.14c-0.94-2.004-3.316-2.856-5.32-1.928c-2,0.936-2.864,3.32-1.928,5.32
			l28.124,60.14c4.296,9.192,15.656,16.388,25.856,16.388h155.7c10.208,0,21.564-7.2,25.868-16.388l28.228-60.32
			C380.646,132.332,379.782,129.948,377.782,129.012z"/>
	</g>
</g>
<g>
	<g>
		<path d="M281.242,203.04c-2.208,0-4,1.792-4,4v15.596c0,3.828-1.336,3.828-1.904,3.828h-54.672c-2.648,0-5.712-2.316-5.712-3.828
			V207.04c0-2.208-1.792-4-4-4c-2.208,0-4,1.792-4,4v15.596c0,6.66,7.372,11.828,13.712,11.828h54.672
			c4.788,0,9.904-3.108,9.904-11.828V207.04C285.242,204.832,283.45,203.04,281.242,203.04z"/>
	</g>
</g>
<g>
	<g>
		<path d="M354.282,265.56c-2.208,0-4,1.792-4,4s1.792,4,4,4c2.192,0,3.34,1.904,3.34,3.784c0,1.948-2.076,3.784-4.276,3.784
			H142.578c-2.064,0-3.808-1.744-3.808-3.808s1.744-3.808,3.808-3.808h185.52c2.208,0,4-1.792,4-4s-1.792-4-4-4h-185.52
			c-6.512,0-11.808,5.296-11.808,11.808s5.296,11.808,11.808,11.808h210.768c6.656,0,12.276-5.396,12.276-11.784
			C365.622,270.736,360.642,265.56,354.282,265.56z"/>
	</g>
</g>
<g>
	<g>
		<path d="M354.282,335.828c-2.208,0-4,1.792-4,4s1.792,4,4,4c2.192,0,3.34,1.908,3.34,3.792c0,1.952-2.076,3.792-4.276,3.792
			H142.578c-2.064,0-3.808-1.744-3.808-3.808c0-2.068,1.744-3.812,3.808-3.812h185.52c2.208,0,4-1.792,4-4s-1.792-4-4-4h-185.52
			c-6.512,0-11.808,5.3-11.808,11.812s5.296,11.808,11.808,11.808h210.768c6.656,0,12.276-5.4,12.276-11.792
			C365.622,341.008,360.642,335.828,354.282,335.828z"/>
	</g>
</g>
<g>
	<g>
		<path d="M354.282,406.096c-2.208,0-4,1.792-4,4s1.792,4,4,4c2.192,0,3.34,1.912,3.34,3.8c0,1.952-2.076,3.8-4.276,3.8H142.578
			c-2.064,0-3.808-1.744-3.808-3.808s1.744-3.808,3.808-3.808h185.52c2.208,0,4-1.792,4-4s-1.792-4-4-4h-185.52
			c-6.512,0-11.808,5.296-11.808,11.808s5.296,11.808,11.808,11.808h210.768c6.656,0,12.276-5.404,12.276-11.8
			C365.622,411.28,360.642,406.096,354.282,406.096z"/>
	</g>
</g>
</svg>